<svg width="297" height="34" fill="none" xmlns="http://www.w3.org/2000/svg"><path d="M66.5 1.1H66l-.1.2v3.8c0 .8 0 2.5 1.8 2.5.5 0 2.2-.2 2.2-2.4V3.5l-.1-2c0-.3-.1-.4-.4-.4h-.5V.8H71V1h-.3c-.3 0-.3 0-.3.2v4c0 2-1.5 2.8-3 2.8-2.2 0-2.8-1.3-2.8-2.5v-3c0-1.4 0-1.5-.4-1.5h-.5V.8h2.8V1Zm7 2.6c.6-.4 1.1-.8 1.7-.8 1 0 1.4.6 1.4 1.6V6c0 1.3 0 1.5.3 1.5h.5v.3h-2.5v-.3h.3c.1 0 .2 0 .2-.2V5c0-.7 0-1.4-.8-1.4-.4 0-.8.2-1.1.5V6c0 1.3 0 1.5.3 1.5h.4v.3h-2.5v-.3h.4c.1 0 .2 0 .2-.2V5.1c0-1.2 0-1.6-.4-1.6h-.4V3c.6 0 1.3 0 2-.2v.8ZM79.8 6c0 1.3 0 1.5.3 1.5h.5v.3H78v-.3h.4c.1 0 .2 0 .2-.2V5.1c0-1.2 0-1.6-.4-1.6h-.5V3c.7 0 1.4 0 2-.2v3Zm-1.3-4.6c0-.4.3-.6.6-.6s.6.2.6.6c0 .3-.3.6-.6.6a.6.6 0 0 1-.6-.6Zm7.5 2h-.2c-.2 0-.2 0-.3.2l-2 4.3-.1.1-.2-.2-1.3-3c-.4-1-.6-1.4-1-1.4h-.2v-.3h2.5v.3h-.4l-.2.1.3.7 1 2.2c.2-.5 1-2.2 1-2.7 0-.2-.1-.3-.3-.3h-.4v-.3H86v.3ZM87.8 5c0-.5.2-1.7.9-1.7.5 0 .8.8 1 1.2L88 5h-.1Zm3 2c-.4.2-.8.4-1.4.4-1.2 0-1.6-1-1.6-2l3.2-.9c-.5-.9-1-1.6-2-1.6-1.6 0-2.4 1.3-2.4 2.7 0 1.4.7 2.4 2.2 2.4.8 0 1.6-.3 2.2-.8l-.2-.3Zm2.8-3c.5-.7.8-1 1.4-1 .2 0 .4 0 .5.2v.7c-.1.2-.1.3-.3.3-.2 0 0-.4-.6-.4-.4 0-.8.3-1 .5V6c0 1.3 0 1.5.3 1.5h.6v.3h-2.7v-.3h.4c.1 0 .2 0 .2-.2V5.1c0-1.2 0-1.6-.4-1.6h-.5V3c.7 0 1.4 0 2-.2v1Zm6 0h-.3c-.2-.5-.8-.6-1.2-.6-.4 0-1 .1-1 .7 0 1 2.9.4 2.9 2.2 0 1.3-1.4 1.7-2.4 1.7-.5 0-1 0-1.4-.2l-.2-.9c0-.1 0-.2.2-.2l.2.2c.1.5.8.7 1.3.7s1.3-.2 1.3-.9c0-1-2.9-.4-2.9-2.2 0-.9.8-1.6 2.1-1.6.5 0 1 0 1.3.3l.1.8Zm3 2c0 1.3 0 1.5.4 1.5h.5v.3h-2.6v-.3h.4s.2 0 .2-.2V5.1c0-1.2 0-1.6-.4-1.6h-.5V3c.7 0 1.4 0 2-.2v3Zm-1.3-4.6c0-.4.3-.6.6-.6.4 0 .7.2.7.6 0 .3-.3.6-.7.6a.6.6 0 0 1-.6-.6Zm6.3 5.5c-.3.2-.6.5-1 .4-1.1 0-1.3-1.1-1.3-2 0-.9.3-2 1.4-2 .3 0 .6.2 1 .4v3.2Zm1.2-6.9-2 .2v.4h.4c.3 0 .4.3.4 2v.7c-.4-.2-.7-.4-1.1-.4-1.6 0-2.4 1.3-2.4 2.7 0 1.8 1 2.4 1.9 2.4.6 0 1-.3 1.6-.7V8l2-.2v-.3h-.5c-.3 0-.3-.5-.3-1.6V0Zm4.2 6.7c-.3.3-.7.5-1.1.5-.4 0-.5-.2-.5-.5 0-.7.7-1.1 1.3-1.4h.2v1.4Zm-.6-1.6c-.8.3-2.2.8-2.2 1.8 0 .7.4 1.1 1 1.1.7 0 1.4-.5 1.8-.9.4.9 1.2 1 1.4 1l.5-.7c-.7-.1-.8-.3-.8-1.2V4.5c0-1.2-.1-1.6-1.4-1.6-1 0-2.4.6-2.4 1.5 0 .2.2.3.4.3.5 0 .7-.5.7-1.1l.8-.2c.7 0 .7.4.7 1.1v.3l-.5.3Zm6.6 1.8c-.3.2-.6.5-1 .4-1.2 0-1.4-1.1-1.4-2 0-.9.3-2 1.4-2 .4 0 .7.2 1 .4v3.2Zm1-6.9-2 .2v.4h.5c.3 0 .4.3.4 2v.7c-.4-.2-.8-.4-1.2-.4-1.5 0-2.4 1.3-2.4 2.7 0 1.8 1 2.4 1.9 2.4.7 0 1.1-.3 1.7-.7V8l2-.2v-.3h-.5c-.4 0-.4-.5-.4-1.6V0Zm8.1 6.9c-.3.2-.6.5-1 .4-1 0-1.3-1.1-1.3-2 0-.9.3-2 1.4-2 .3 0 .6.2 1 .4v3.2Zm1.2-6.9-2 .2v.4h.5c.2 0 .3.3.3 2v.7c-.3-.2-.7-.4-1.1-.4-1.6 0-2.4 1.3-2.4 2.7 0 1.8 1 2.4 1.9 2.4.7 0 1.1-.3 1.6-.7V8a13 13 0 0 1 2-.2v-.3h-.5c-.3 0-.3-.5-.3-1.6V0Zm2.7 5c0-.5.2-1.7.9-1.7.5 0 .8.8 1 1.2l-1.8.5h-.1Zm3 2c-.4.2-.8.4-1.3.4-1.3 0-1.6-1-1.7-2l3.2-.9c-.5-.9-1-1.6-2-1.6-1.6 0-2.4 1.3-2.4 2.7 0 1.4.8 2.4 2.2 2.4.8 0 1.6-.3 2.2-.8l-.2-.3Zm-71 9.4c0-3.7 3.9-5.5 7.3-5.5 1.2 0 2.5 0 3.7.5l.1 2.5c0 .4-.2.4-.4.4-.3 0-.3-.2-.4-.5-.3-1.3-2.4-1.7-3.4-1.7-2 0-4 1-4 3.2 0 4.8 9.8 2.6 9.8 9.9 0 1-.9 6-7.7 6-1.6 0-3.3-.3-5-.9l-.4-3c0-.2 0-.3.4-.3s.5.3.5.6c.6 1.6 3.2 2.4 4.7 2.4 2.4 0 4.7-1.3 4.7-3.8 0-5.2-9.8-2.9-9.8-9.8Zm21.5 11.1c-.8.8-1.7 1.5-2.8 1.5-1 0-1.5-.7-1.5-1.6 0-1.8 2-3 3.7-3.7l.6-.2v4Zm-1.6-4.4c-2.2.9-5.9 2.1-5.9 5 0 1.8 1.1 3 2.9 3 1.7 0 3.6-1.5 4.8-2.5a4 4 0 0 0 3.9 2.5l1.2-1.8c-1.8-.3-2.2-.8-2.2-3.2v-4.6c0-3.3-.3-4.2-3.6-4.2-2.7 0-6.7 1.5-6.7 3.9 0 .5.5 1 1 1 1.3 0 2-1.4 2-3 .6-.5 1.4-.7 2.1-.7 2 0 2 1.2 2 3v1L84 23ZM97 19.4c1.6-1.2 3-2.1 4.7-2.1 2.4 0 3.7 1.4 3.7 4.1v4.1c0 3.5.1 4.2 1 4.2h1v1h-6.6v-1h.9c.3 0 .5 0 .5-.5V23c0-2 0-3.7-2.2-3.7-1 0-2.1.5-3 1.4v5c0 3.4.1 4.1 1 4.1h1v1h-6.8v-1h1c.4 0 .6 0 .6-.5v-6.1c0-3 0-4.4-1-4.4h-1.3v-1c1.8 0 3.7-.2 5.5-.4v2.1Z" fill="#fff"/><path d="M117.8 22.5h-5.5l3-7.2 2.5 7.2Zm.4 1.2 1.9 5.2c.2.6 0 .7-.5.7h-1.4v1h7.7v-.9h-.8c-1 0-1.2-.5-2.1-3-1.7-4.5-5-13.4-5-14.4 0-.6.5-.7.5-1 0-.2 0-.4-.3-.4l-2.4.4c-3 7.3-6.2 14.4-7.5 17.8-.1.4-.4.6-.8.6h-1v1h6.2v-1H111c-.6 0-.9-.2-.9-.7 0-1 1-3.7 1.7-5.3h6.4Z" fill="#fff"/><path d="M130.3 19.4c1.6-1.2 3.1-2.1 4.7-2.1 2.4 0 3.7 1.4 3.7 4.1v4.1c0 3.5.1 4.2 1 4.2h1.1v1h-6.7v-1h.9c.3 0 .5 0 .5-.5V23c0-2 0-3.7-2.2-3.7-1 0-2.1.5-3 1.4v5c0 3.4.1 4.1 1 4.1h1v1h-6.8v-1h1c.4 0 .6 0 .6-.5v-6.1c0-3 0-4.4-1-4.4h-1.3v-1c1.8 0 3.7-.2 5.5-.4v2.1Zm20.4 8.6c-.8.7-1.6 1.3-2.7 1.2-3 0-3.6-3-3.6-5.5 0-2.4.8-5.2 3.7-5.2 1 0 1.9.3 2.6.8V28ZM154 9.2l-5.5.8v.9h1.3c.7 0 1 .8 1 5.6v1.7c-1-.6-2-1-3.1-1-4.2 0-6.5 3.6-6.5 7.4 0 4.7 2.8 6.5 5.1 6.5 2 0 3-1 4.5-2v2a38 38 0 0 1 5.4-.6v-.9h-1.3c-.9 0-1-1.3-1-4.4v-16Zm8.3 10.8c1.5-1.6 2.4-2.7 4-2.7.5 0 1 .2 1.4.6l-.3 2c-.1.5-.2.7-.5.7-.6 0-.2-1-1.8-1-1.1 0-2 .7-2.8 1.5v4.4c0 3.5.1 4.2 1 4.2h1.5v1h-7.3v-1h1.1c.3 0 .5 0 .5-.5v-6.1c0-3 0-4.4-1-4.4h-1.3v-1c1.9 0 3.7-.2 5.5-.4V20Zm8.8 3c0-1.5.5-4.7 2.5-4.7 1.5 0 2.3 2 2.8 3.2l-5 1.4h-.3Zm1.9-7c1.4-1.1 3-2 4.5-2.8-.3-.3-1-1-1.3-1a14 14 0 0 0-4 3l.8.7Zm6.4 12.1a5.9 5.9 0 0 1-3.7 1.4c-3.3 0-4.4-2.8-4.5-5.6l8.5-2.3c-1-2.4-2.6-4.3-5.5-4.3-4 0-6.3 3.3-6.3 7.1s2 6.7 6 6.7c2.3 0 4.4-.8 6-2.3l-.5-.7ZM191 20c0 .3-.2.4-.4.4-.3 0-.4-.2-.5-.4-.5-1.2-2.1-1.6-3.3-1.6-1.1 0-2.7.6-2.7 2 0 2.8 7.8 1.2 7.8 6 0 3.5-3.7 4.7-6.5 4.7a12 12 0 0 1-3.8-.6L181 28c0-.4.1-.6.5-.6.3 0 .4.2.5.6.4 1.3 2.3 1.8 3.6 1.8 1.4 0 3.5-.5 3.5-2.3 0-3-7.8-1.2-7.8-6.1 0-2.3 2.2-4.2 5.7-4.2 1.2 0 2.5.1 3.6.7l.2 2ZM43.2.2h-5.9l-.9 1.1h-12l-.9-1h-5.9l.9 1.1s.8 1 .8 3.3v15.6s0 4.1 4.5 4.4h3.4a5 5 0 0 1 3.3 1.5 4.6 4.6 0 0 1 3.3-1.5h3.3c4.5-.4 4.5-4.5 4.5-4.5V4.6c-.1-2.4 1-3.5 1-3.5l.6-.9ZM23.3.8l.9 1h12.5l.8-1h4.7C42 1 41 2 41 4.4v15.8a4 4 0 0 1-4 4h-3.2s-1.7 0-3.3 1.3a5.1 5.1 0 0 0-3.4-1.3H24a4 4 0 0 1-4-4V4.8c0-2.4-.9-3.4-1-3.6l-.2-.3h4.6Z" fill="#fff"/><path d="M37.2.4 30.4 9l-7-8.6h-5.7l9.9 12.2-7.7 9.5.1.3c1 2 3.2 2.3 3.3 2.3h.3l6.9-8.5 6.9 8.5h.3s2.3-.3 3.3-2.3V22l-7.6-9.5C33.8 11.8 43 .2 43 .2h-5.7l-.2.2Z" fill="#fff"/><path d="m23.2.8 7.2 8.9 7.2-9h4.5l-9.4 11.7 7.8 9.7c-.9 1.7-2.9 2-2.9 2l-7.1-8.8-7.1 8.8s-2-.2-3-2l7.8-9.6L18.8.8h4.4Zm17.4 27.3v.1s1.6-.6 3.3-1.6l-.4-.4s-.8.7-2.9 2Zm4-.6-.4-.5s-.7.8-2.9 2c0 0 1.6-.5 3.3-1.5Zm-24.6.6c-2-1.1-2.9-2-2.9-2l-.3.5c1.7 1 3.2 1.6 3.2 1.6ZM16.5 27l-.4.5c1.6 1 3.2 1.6 3.2 1.6-2-1.3-2.8-2-2.8-2Z" fill="#fff"/><path d="M30.4 33a23 23 0 0 1-14.6-5.1l-.4.4a23.8 23.8 0 0 0 30 0l-.3-.4A23.3 23.3 0 0 1 30.4 33ZM5.6 9c-.6.2-1.8-.4-1.8-.4s1.5 1 2.4 1.4l2 1.3L5 7.5c.4.6 1 1.5.7 1.6ZM3.2 23c2.4-3.9 5.6-4.4 5.6-4.4l-2.2.2c-1.8.2-2.8-.8-2.8-.8.4.5.6 1 .2 1-.9.2-2.4-1-2.4-1 2.6 1.8 1.6 5 1.6 5Z" fill="#fff"/><path d="M20.7 27.4v-.1c-2-1.2-2.4-1.6-2.9-2-.4-.3-2-1.4-2.7-2.6-1.4-2-2-2.4-3.2-2.9-1.2-.5-5-1.2-8.4 4.2 0 0-.8 1-1.9 4h.1s1-2.7 2.5-3.2c0 0 .7-.3.7 2.1 0 0 .2-3.3 1.6-4 0 0 1-.6 1.7 1.8 0 0 .6-4.4 3.6-3.9.6.1 1.7 1.1 1.4 2.7l.4-.3c.7-.1 2.1 1.5 4 2.6a22 22 0 0 0 3.1 1.6ZM8.3 2.8l.8 1.9h.2S8.9 3.3 9 2.8h.1s.8 1.2 1 1.9l.1-2h.1s.5 1.1.6 2h.2s.1-1.6.4-2.2h.1c.3.6.4 2.2.4 2.2h.2c0-.9.6-2 .6-2 .2.5.1 2 .1 2h.2c0-.7.9-1.9.9-1.9a6 6 0 0 1-.2 1.9h.2l.8-2c.2-.3.6-.5.6-.5L13.8.8l-.6.5-.5-.5-.6.6-.5-.6-.6.5-.5-.5-.6.5-.6-.5-1.5 1.4s.3.2.5.6Zm-5.7 7.5-1.6.6c.4-.2 2.5-.6 4 .3 0 0 1.5.7.4 3.5 0 0 1.2-2 2.7-.9 0 0 1 .8.1 2.6 0 0 1-2 2.2-1a174.5 174.5 0 0 1 3.4 4.4S11.4 15 11.3 9.4v-.9h.5v1c0 1.4.3 4.8 1.4 6.7 0 0-1-2.4 1.7-5 0 0-.4.3-.7.2-.9 0-1.8-.8-1.8-2.2v-.7l.8-.2c.2-.1 2.3-.9 2.5-3.4h-.2s-.1 1.5-1.2 2.2v-.4c.4-.4.6-.9.6-1.8h-.2c0 .2 0 1-.4 1.4l-.3-.6c-.3-.3 0-.7 0-.8h-.2s-.5.3-.8 1v.6L12.6 5 12 6.7l-.5-1.8-.6 1.8-.6-1.7-.2 1.6c0-.2 0-.3-.2-.5-.2-.8-.7-1.1-.7-1.1H9s.3.5 0 .8l-.3.6C8.3 6 8.4 5.2 8.4 5h-.2c0 .9.2 1.4.5 1.8v.4c-1-.7-1-2.2-1-2.2h-.3C7.6 7.5 10 8.4 10 8.4l.8.2v.7c0 .6-.4 1-1 1h-.3s1.5 1 1.3 2.3c0 0-.3.9-1.9-.2-1.6-1.1-4.6-3-8.3-4v.1l2 1s.5.4.1.7Z" fill="#fff"/><path d="M15.4 11.9a6.6 6.6 0 0 0-1.5 5.6c.4 2.2 1.2 4.7 4 7l2.7 2a19.5 19.5 0 0 0 22.5-2c2.7-2.3 3.5-4.8 3.9-7 .4-2.2-.3-4-1.5-5.6-2-2.3-1.8-4-1.8-4s-.6 1.7 0 3.2l.6 1.4c1 2-1.6 2.1-1.6 2.1.5.1 1 .1 1.8.7.9.8 1.1 2 .5 2.5-.5.4-1.3.2-1.3.2.5 1 1 2.5.4 3.2-.6.7-1.4.2-1.4.2.1 1.7-1.4 3.8-2.7 4.6a18.7 18.7 0 0 1-9.6 2.6c-3.4 0-7-1-9.5-2.6-1.3-.8-2.8-2.9-2.7-4.6 0 0-.8.5-1.4-.2-.6-.7-.1-2.3.3-3.2 0 0-.7.2-1.3-.2-.5-.5-.3-1.7.6-2.5.7-.6 1.3-.6 1.8-.7 0 0-2.6-.1-1.7-2.1l.7-1.4c.6-1.4 0-3.1 0-3.1s.2 1.6-1.8 4v-.1Zm37.1-.6 2.1-1.3L57 8.6s-1.2.7-1.8.5c-.4-.1.3-1 .7-1.6l-3.4 3.8Zm4.4 7.7c-.4 0-.3-.5.1-1 0 0-1 1-2.8.8l-2.2-.2s3.1.5 5.6 4.4c0 0-1-3.2 1.6-5 0 0-1.6 1.2-2.4 1Z" fill="#fff"/><path d="M49 19.8c-1.3.5-2 1-3.3 3-.8 1.1-2.3 2.2-2.7 2.6l-3 1.9s1.6-.5 3.3-1.5c1.8-1.1 3.2-2.7 4-2.6l.3.3c-.3-1.6.8-2.6 1.4-2.7 3-.5 3.6 4 3.6 4 .7-2.5 1.7-1.8 1.7-1.8 1.4.7 1.6 3.9 1.6 3.9 0-2.4.7-2 .7-2 1.5.4 2.5 3 2.5 3-1-2.9-1.8-4-1.8-4-3.4-5.3-7.2-4.6-8.4-4Zm-3-17 .8 1.9h.2s-.4-1.4-.2-1.9c0 0 .8 1.2 1 1.9 0 0 0-1.5.2-2 0 0 .5 1.1.6 2h.2s.1-1.6.4-2.2h.1c.3.6.4 2.2.4 2.2h.2c0-.9.6-2 .6-2 .3.6.1 2 .1 2h.2c0-.7 1-1.9 1-1.9l-.3 1.9h.2l.8-2c.2-.3.6-.5.6-.5L51.5.8l-.6.5-.5-.5-.6.5-.6-.5-.5.5-.5-.5-.6.5-.6-.5-1.6 1.4s.4.2.6.6Zm12.3 6.8c1.1-.7 2-1 2-1v-.1c-3.7.9-6.7 2.8-8.3 3.9-1.6 1-1.9.2-1.9.2-.2-1.2 1.3-2.4 1.3-2.4l-.4.1a1 1 0 0 1-.9-1v-.7l.8-.2s2.3-.9 2.5-3.4h-.2S53 6.5 52 7.3v-.5c.4-.4.6-.9.5-1.8h-.1c0 .3 0 1-.4 1.4l-.3-.6c-.3-.2 0-.7 0-.8h-.2s-.5.3-.8 1v.6L50.3 5l-.6 1.7-.6-1.8-.5 1.8L48 5l-.3 1.6v-.5c-.3-.8-.8-1-.8-1h-.2s.3.5 0 .7a1 1 0 0 0-.3.7C46 5.9 46 5.3 46 5c0 1 .2 1.4.5 1.8v.5c-1-.8-1.1-2.3-1.1-2.3H45c.2 2.5 2.3 3.3 2.5 3.4l.8.2v.7c0 1.4-.9 2.2-1.8 2.3-.4 0-.7-.2-.7-.2 2.6 2.5 1.7 5 1.7 5 1-2 1.3-5.4 1.4-6.9v-.9h.5v1c0 5.4-2.4 10-2.4 10l2.1-3c.5-.7 1.3-1.3 1.3-1.3 1.2-1 2.2 1 2.2 1-1-1.8.1-2.6.1-2.6 1.5-1.1 2.7.9 2.7.9-1.2-2.8.3-3.5.3-3.5a5 5 0 0 1 4.1-.3l-1.6-.6c-.5-.4 0-.7 0-.7ZM21.2 30.3l-.1-.3c-.6-.3-.7-.7-.5-1.2.2-.5.6-.6 1.1-.4.5.2.6.6.4 1-.1.4-.4.6-.7.6l.2.5-.4-.2Zm0-.6c.2.1.5 0 .6-.4.1-.2.1-.6-.2-.7-.3-.1-.5 0-.7.3 0 .3 0 .7.2.8Zm1.4-.9.3.1-.3.9c-.1.3 0 .5.2.6.2 0 .4-.1.4-.4l.4-.9.3.1-.4 1c-.1.5-.4.5-.8.4-.4-.1-.6-.4-.4-.8l.3-1Zm2 .6.3.1.2 1.8h-.3v-.5l-.7-.2-.3.4-.3-.1 1-1.5Zm0 .4-.3.6.4.1v-.7Zm1.1-.1 1 .2-.1.3-.6-.2-.1.4.6.2-.1.2-.6-.1v.5h.6v.3l-1-.2.3-1.6Zm1.1.3h.4c.4 0 .8 0 .7.6 0 .1-.2.3-.4.3l.2.2.2.7h-.4l-.1-.6c0-.2-.1-.2-.2-.2H27v.6h-.4l.2-1.7Zm.3.7c.3 0 .4 0 .5-.2 0-.2-.2-.2-.3-.2H27v.4Zm1.1-.6 1 .1v.3h-.7v.3h.6v.3h-.6v.5h.6v.3l-1-.1.1-1.7Zm1.2.1h.4c.3 0 .8 0 .8.5 0 .2-.2.3-.4.4l.2.2.2.6h-.3l-.2-.5c0-.1-.1-.2-.3-.2v.7h-.4v-1.7Zm.3.7h.1c.2 0 .4 0 .4-.2s-.2-.2-.3-.2h-.2v.4Zm1.1-.7h1v.3h-.6v.4h.6v.2h-.6v.5h.6v.3h-1v-1.7Zm1.7 0h.3l.6 1.2.3-1.4h.3l-.4 1.7h-.4l-.7-1.5Zm1.6-.2 1-.2v.2l-.6.1v.4h.6v.2l-.5.1v.5l.7-.2v.3l-.9.2-.3-1.7Zm1.2-.3h.3c.4-.1.8-.3 1 .2 0 .2-.1.4-.3.4l.2.2.4.5-.4.1-.3-.4c0-.1-.1-.2-.3-.1l.1.7h-.3l-.4-1.6Zm.5.6c.2 0 .4-.1.4-.3 0-.2-.3-.2-.4-.1h-.1v.4Zm.8-.9.3-.1.3.9c.1.3.2.4.5.3.2 0 .3-.3.2-.5l-.3-1h.3l.3 1c.2.4 0 .6-.4.8-.4.1-.7 0-.9-.4l-.3-1Zm1.5-.5.5-.2.9 1-.2-1.3.5-.2.7 1.5-.3.1-.6-1.2.2 1.4-.3.1-1-1 .6 1.2-.3.1L38 29Z" fill="#fff"/><path d="M206 31.8v-30" stroke="#fff" stroke-width=".9" stroke-miterlimit="10"/><path d="M219 4.4h6.7v1s0 .2-.2.2h-4.6l-.2.1v2.8c0 .1 0 .2.2.2h3.3l.2.1v1h-3.5l-.2.2v3l.2.1h4.8v1.1l-.1.1H219V4.4Zm11.1-.1c1.8 0 3.2.5 4 1.3.8.9 1.3 2 1.3 3.7 0 1.6-.5 2.9-1.4 3.7-.9.9-2.2 1.3-4 1.3h-2.2c-.2 0-.3 0-.3-.2V4.4h2.7Zm-1 1.4v7.4h.7c.9 0 1.6 0 2.2-.3.6-.3 1-.7 1.3-1.3a6.2 6.2 0 0 0 0-4.4c-.3-.5-.7-1-1.2-1.1-.5-.3-1.2-.4-2-.5h-.8c-.1 0-.2 0-.2.2Zm14.6 7.9c-.7.6-1.6.9-2.8.9-1.3 0-2.2-.3-2.8-1-.6-.6-.9-1.6-.9-2.9v-6c0-.2 0-.3.2-.3h1.2c.2 0 .2 0 .2.2V11c0 1.6.8 2.4 2.2 2.4 1.5 0 2.3-.8 2.3-2.4V4.5l.1-.2h1c.2 0 .2 0 .2.2V11c0 1.2-.3 2.1-1 2.7Zm8.8-9c.5.2 1 .6 1.3 1a2.9 2.9 0 0 1 .7 1.6h-.1l-1.3.2-.1-.2c-.2-.6-.4-1-.8-1.3a2 2 0 0 0-1.4-.5c-.9 0-1.5.3-2 1-.4.6-.6 1.6-.6 3 0 1.2.2 2.2.6 2.8.5.7 1.2 1 2 1 .7 0 1.2-.1 1.6-.4a3 3 0 0 0 1-1.5h.2l1 .2v.2a3.9 3.9 0 0 1-2 2.3 4 4 0 0 1-1.8.5c-.9 0-1.7-.2-2.3-.7A4 4 0 0 1 247 12a6 6 0 0 1-.5-2.7c0-1 .1-2 .5-2.7a4 4 0 0 1 1.5-1.8c.6-.4 1.4-.6 2.3-.6a4 4 0 0 1 1.7.4Zm2.9 9.6V14l3.5-9.5v-.1h1.6c.2 0 .3 0 .4.2l3.3 9.5v.2h-1.4l-.2-.1-.8-2.4-.1-.1h-4l-.8 2.5-.3.1h-1l-.2-.1Zm5.8-3.8c.1-.1.1-.1 0-.2l-1.4-4V6h-.1l-1.5 4.1v.2h3Zm9.8-5.8c.6.2 1 .6 1.4 1a2.8 2.8 0 0 1 .6 1.6h-.1l-1.3.2-.1-.2a2 2 0 0 0-.8-1.3 2 2 0 0 0-1.4-.5c-.8 0-1.5.3-2 1-.4.6-.6 1.6-.6 3 0 1.2.2 2.2.7 2.8.4.7 1 1 2 1 .6 0 1-.1 1.5-.4a3 3 0 0 0 1-1.5h.2l1 .2v.2a3.8 3.8 0 0 1-2 2.3 4 4 0 0 1-1.8.5c-.9 0-1.6-.2-2.3-.7a4 4 0 0 1-1.5-1.8 7.6 7.6 0 0 1 0-5.4 4 4 0 0 1 1.5-1.8c.6-.4 1.4-.6 2.3-.6a4 4 0 0 1 1.7.4Zm5.3-.3c.2 0 .2 0 .2.2v9.8H275l-.1-.2V4.5c0-.1 0-.2.2-.2h1.3Zm4.2 9.6c-.6-.4-1.1-1-1.5-1.8a7.6 7.6 0 0 1 0-5.5 4 4 0 0 1 1.5-1.8c.7-.4 1.5-.6 2.4-.6.9 0 1.6.2 2.3.6a4 4 0 0 1 1.5 1.8 7.8 7.8 0 0 1 0 5.5c-.4.8-.9 1.3-1.5 1.8-.7.4-1.5.6-2.3.6-1 0-1.7-.2-2.4-.6Zm4.4-1.6c.4-.6.6-1.6.6-3 0-1.3-.2-2.3-.7-3-.4-.6-1-1-2-1-.8 0-1.5.4-2 1-.4.7-.6 1.7-.6 3 0 1.4.2 2.4.7 3 .4.6 1 1 2 1 .9 0 1.5-.4 2-1Zm-.2-10.2v.1c0 .1 0 .2-.2.2l-3 1h-.2l-.1-.2-.1-.3v-.2l3.1-1.3h.2l.3.7Zm12.1 2.2.1.2v9.7l-.2.1h-1l-.1-.1-5-7V7v7c0 .2-.1.2-.3.2h-1s-.2 0-.2-.2V4.5l.1-.1h1.4l4.8 7 .2-.1V4.5c0-.1 0-.2.2-.2h1ZM219 20.2h6.4c.2 0 .2 0 .2.2v.8c0 .1 0 .2-.2.2h-4.6s-.2 0-.2.2v2.8l.2.1h3.3l.2.2v1h-3.5l-.2.2v3h5l.1.1v1.1h-6.6v-9.9Zm11.4 9.5c-.4.4-1 .6-1.8.6-.4 0-1 0-1.5-.2-.2 0-.2-.2-.2-.4l.1-.8c0-.2 0-.2.2-.2l.2.1a2.5 2.5 0 0 0 .8.1c.4 0 .7 0 .9-.3l.2-1.1v-7.1c0-.2 0-.2.2-.2h1.3l.1.2v7.5c0 .8-.1 1.4-.5 1.8Zm2.9-9.5h6.4l.1.2v.8c0 .1 0 .2-.2.2h-4.5c-.2 0-.2 0-.2.2v2.8l.1.1h3.3l.2.2v1H235l-.1.2v3h4.9l.2.1v1.1h-6.7v-9.9Zm13.4.2c.6.3 1 .6 1.4 1a2.9 2.9 0 0 1 .7 1.6v.1h-.2l-1.2.1-.2-.1c-.1-.6-.4-1-.7-1.4a2 2 0 0 0-1.4-.5c-.9 0-1.6.4-2 1-.5.7-.7 1.7-.7 3s.2 2.3.7 3c.4.6 1.1.9 2 .9.6 0 1.1-.2 1.5-.5a3 3 0 0 0 1-1.4h.2l1 .2s.1 0 0 .2A3.8 3.8 0 0 1 247 30a4 4 0 0 1-1.8.4c-1 0-1.7-.2-2.4-.6a4 4 0 0 1-1.5-1.8 7.6 7.6 0 0 1 0-5.5 4 4 0 0 1 1.5-1.7c.7-.4 1.4-.6 2.3-.6a4 4 0 0 1 1.8.3Zm10.3 9.1c-.6.5-1.5.8-2.8.8-1.3 0-2.2-.3-2.8-.9-.6-.6-.9-1.6-.9-2.9v-6c0-.2 0-.3.2-.3h1.3s.2 0 .2.2v6.4c0 1.5.7 2.3 2.2 2.3 1.4 0 2.2-.8 2.2-2.3v-6.4c0-.1 0-.2.2-.2h1l.1.2v6.3c0 1.3-.3 2.2-.9 2.8Zm2.5-9.1c0-.2 0-.2.2-.2h7.4c.1 0 .2 0 .2.2v.8l-.2.2h-2.7l-.1.1V30c0 .1 0 .2-.2.2h-1.3l-.1-.2v-8.6h-3c-.1 0-.2 0-.2-.2v-.8Zm10.9-.2c.1 0 .2 0 .2.2V30l-.3.1H269v-9.8l.1-.2h1.3Zm10.4.1v.1l-3.4 9.6v.1l-.3.1H276c-.2 0-.3 0-.4-.2l-3.3-9.6v-.1l.2-.1h1.3s.2 0 .2.2l2.6 7.7v.1h.2l2.6-7.8c0-.1 0-.2.2-.2h1.2Zm-.1 9.7 3.5-9.6v-.2h1.6c.2 0 .3 0 .3.2l3.4 9.5v.1l-.1.2h-1.3s-.2 0-.2-.2l-.8-2.4H283l-.9 2.5-.2.1h-1c-.1 0-.2 0-.2-.2Zm5.8-3.8c.1 0 .1 0 0-.1l-1.4-4v-.2l-.1.1-1.5 4v.2h3Z" fill="#fff"/></svg>